<?xml version="1.0" encoding="UTF-8" standalone="no"?>
<svg
   width="128"
   height="128"
   viewBox="0 0 33.866666 33.866668"
   version="1.1"
   id="svg8"
   inkscape:version="1.3.2 (091e20e, 2023-11-25, custom)"
   sodipodi:docname="BuildInformationGenerator.svg"
   inkscape:export-filename="BuildInformationGenerator.png"
   inkscape:export-xdpi="192"
   inkscape:export-ydpi="192"
   xml:space="preserve"
   xmlns:inkscape="http://www.inkscape.org/namespaces/inkscape"
   xmlns:sodipodi="http://sodipodi.sourceforge.net/DTD/sodipodi-0.dtd"
   xmlns:xlink="http://www.w3.org/1999/xlink"
   xmlns="http://www.w3.org/2000/svg"
   xmlns:svg="http://www.w3.org/2000/svg"
   xmlns:rdf="http://www.w3.org/1999/02/22-rdf-syntax-ns#"
   xmlns:cc="http://creativecommons.org/ns#"
   xmlns:dc="http://purl.org/dc/elements/1.1/"><defs
     id="defs2"><linearGradient
       id="linearGradient5"
       inkscape:collect="always"><stop
         style="stop-color:#8c009a;stop-opacity:1;"
         offset="0"
         id="stop5" /><stop
         style="stop-color:#4a004a;stop-opacity:1;"
         offset="1"
         id="stop6" /></linearGradient><linearGradient
       inkscape:collect="always"
       xlink:href="#linearGradient5"
       id="linearGradient6"
       x1="7.1437502"
       y1="7.5406241"
       x2="28.045834"
       y2="32.146873"
       gradientUnits="userSpaceOnUse" /></defs><sodipodi:namedview
     id="base"
     pagecolor="#ffffff"
     bordercolor="#666666"
     borderopacity="1.0"
     inkscape:pageopacity="0.0"
     inkscape:pageshadow="2"
     inkscape:zoom="2.8284271"
     inkscape:cx="34.117902"
     inkscape:cy="84.322484"
     inkscape:document-units="mm"
     inkscape:current-layer="layer1"
     inkscape:document-rotation="0"
     showgrid="false"
     units="px"
     showguides="true"
     inkscape:window-width="1680"
     inkscape:window-height="987"
     inkscape:window-x="1672"
     inkscape:window-y="-8"
     inkscape:window-maximized="1"
     inkscape:showpageshadow="2"
     inkscape:pagecheckerboard="0"
     inkscape:deskcolor="#d1d1d1"><sodipodi:guide
       position="16.933333,33.866667"
       orientation="-1,0"
       id="guide4"
       inkscape:locked="false"
       inkscape:label=""
       inkscape:color="rgb(0,134,229)" /><sodipodi:guide
       position="0,16.933333"
       orientation="0,1"
       id="guide5"
       inkscape:locked="false"
       inkscape:label=""
       inkscape:color="rgb(0,134,229)" /></sodipodi:namedview><metadata
     id="metadata5"><rdf:RDF><cc:Work
         rdf:about=""><dc:format>image/svg+xml</dc:format><dc:type
           rdf:resource="http://purl.org/dc/dcmitype/StillImage" /></cc:Work></rdf:RDF></metadata><g
     inkscape:groupmode="layer"
     id="layer1"
     inkscape:label="Background"
     style="display:inline"><rect
       style="display:inline;fill:url(#linearGradient6);stroke-width:0.264999"
       id="rect5"
       width="33.866665"
       height="33.866665"
       x="-6.9388939e-18"
       y="0"
       rx="4.2333331"
       ry="4.2333331"
       inkscape:label="Background" /></g><g
     inkscape:groupmode="layer"
     id="layer2"
     inkscape:label="Icons"
     style="display:inline"><path
       d="m 2,19 c 0,1.7 1.3,3 3,3 h 14 c 1.7,0 3,-1.3 3,-3 V 11 H 2 Z M 19,4 H 17 V 3 C 17,2.4 16.6,2 16,2 15.4,2 15,2.4 15,3 V 4 H 9 V 3 C 9,2.4 8.6,2 8,2 7.4,2 7,2.4 7,3 V 4 H 5 C 3.3,4 2,5.3 2,7 V 9 H 22 V 7 C 22,5.3 20.7,4 19,4 Z"
       id="path1-6"
       style="display:inline;fill:#ffffff;fill-opacity:0.752044"
       inkscape:label="Calender"
       transform="matrix(0.60854167,0,0,0.60854167,18.0975,0.89958325)" /><path
       fill="#231f20"
       d="m 8.995833,2.5818304 c -3.360672,0 -6.085417,2.7247457 -6.085417,6.0854172 0,3.3606714 2.724745,6.0854174 6.085417,6.0854174 3.360671,0 6.085417,-2.724746 6.085417,-6.0854174 0,-3.3606715 -2.724746,-6.0854172 -6.085417,-6.0854172 z m 2.062195,8.1476126 c -0.297803,0.297807 -0.792624,0.282974 -1.09043,-0.01484 L 8.458796,9.2058016 C 8.388246,9.1360096 8.332524,9.0513831 8.29392,8.9576316 8.25512,8.8648286 8.23516,8.7667006 8.23516,8.6672411 V 5.6245336 c 0,-0.4204643 0.340211,-0.7606764 0.760676,-0.7606764 0.420464,0 0.760678,0.3402121 0.760678,0.7606764 v 2.7277888 l 1.30437,1.3043696 c 0.297996,0.2979959 0.294192,0.775512 -0.0029,1.072745 z"
       id="path1-3"
       style="display:inline;fill:#ffffff;fill-opacity:0.754768;stroke-width:0.190169"
       inkscape:label="Clock" /><path
       d="M 16.417,9.583 A 7.917,7.917 0 1 1 8.5,1.666 7.917,7.917 0 0 1 16.417,9.583 Z M 9.64,5.78 A 1.136,1.136 0 1 0 8.504,6.915 1.136,1.136 0 0 0 9.64,5.781 Z M 9.296,8.664 a 0.792,0.792 0 1 0 -1.583,0 v 5.203 a 0.792,0.792 0 0 0 1.583,0 z"
       id="path1-1"
       style="display:inline;fill:#ffffff;fill-opacity:0.752044"
       inkscape:label="Info"
       transform="matrix(0.76865186,0,0,0.76865186,18.910777,17.53056)" /><path
       d="M 30.428,14.663 17.333,1.569 C 16.983,1.22 16.5,1.004 15.966,1.004 c -0.534,0 -1.017,0.216 -1.367,0.565 v 0 l -2.713,2.718 3.449,3.449 c 0.22,-0.077 0.473,-0.121 0.737,-0.121 1.269,0 2.297,1.028 2.297,2.297 0,0.269 -0.046,0.526 -0.131,0.766 l 0.005,-0.016 3.322,3.324 c 0.222,-0.079 0.479,-0.125 0.746,-0.125 1.268,0 2.296,1.028 2.296,2.296 0,1.268 -1.028,2.296 -2.296,2.296 -1.268,0 -2.296,-1.028 -2.296,-2.296 0,-0.313 0.063,-0.611 0.176,-0.883 l -0.006,0.015 -3.11,-3.094 v 8.154 c 0.764,0.385 1.279,1.163 1.279,2.061 0,1.27 -1.03,2.3 -2.3,2.3 -1.27,0 -2.3,-1.03 -2.3,-2.3 0,-0.634 0.256,-1.207 0.671,-1.623 v 0 c 0.211,-0.211 0.462,-0.382 0.741,-0.502 l 0.015,-0.006 v -8.234 c -0.842,-0.354 -1.422,-1.173 -1.422,-2.126 0,-0.32 0.065,-0.624 0.183,-0.901 l -0.006,0.015 -3.389,-3.405 -8.98,8.974 c -0.348,0.351 -0.562,0.834 -0.562,1.368 0,0.534 0.215,1.017 0.563,1.368 L 14.664,30.43 c 0.349,0.35 0.832,0.566 1.366,0.566 0.534,0 1.016,-0.216 1.366,-0.566 L 30.43,17.396 c 0.35,-0.349 0.567,-0.833 0.567,-1.366 0,-0.533 -0.217,-1.017 -0.567,-1.366 v 0 z"
       id="path1"
       style="display:inline;fill:#ffffff;fill-opacity:0.754768"
       inkscape:label="Branch"
       transform="matrix(0.40580265,0,0,0.40580265,2.5025849,18.642574)" /></g></svg>
